<?xml version="1.0" encoding="utf-8"?>
<!-- Generator: Adobe Illustrator 26.3.1, SVG Export Plug-In . SVG Version: 6.00 Build 0)  -->
<svg version="1.1" id="Layer_1" xmlns="http://www.w3.org/2000/svg" xmlns:xlink="http://www.w3.org/1999/xlink" x="0px" y="0px"
	 viewBox="0 0 1442.31 80.57" style="enable-background:new 0 0 1442.31 80.57;" xml:space="preserve">
<style type="text/css">
	.st0{fill:#2D2D2D;}
	.st1{fill:#FFFFFF;}
	.st2{font-family:'FuturaBT-Heavy';}
	.st3{font-size:40.0862px;}
</style>
<rect width="1442.31" height="80.57"/>
<g>
	<polygon class="st0" points="12.59,80.57 3.91,80.57 26.84,0 35.52,0 	"/>
	<polygon class="st0" points="153.27,80.57 144.59,80.57 167.52,0 176.2,0 	"/>
	<polygon class="st0" points="293.95,80.57 285.27,80.57 308.2,0 316.88,0 	"/>
	<polygon class="st0" points="434.63,80.57 425.95,80.57 448.88,0 457.56,0 	"/>
	<polygon class="st0" points="575.31,80.57 566.63,80.57 589.56,0 598.24,0 	"/>
	<polygon class="st0" points="715.99,80.57 707.31,80.57 730.24,0 738.92,0 	"/>
	<polygon class="st0" points="856.67,80.57 847.99,80.57 870.92,0 879.6,0 	"/>
	<polygon class="st0" points="997.34,80.57 988.66,80.57 1011.6,0 1020.28,0 	"/>
	<polygon class="st0" points="1138.02,80.57 1129.34,80.57 1152.28,0 1160.96,0 	"/>
	<polygon class="st0" points="1278.7,80.57 1270.02,80.57 1292.95,0 1301.63,0 	"/>
	<polygon class="st0" points="1419.38,80.57 1410.7,80.57 1433.63,0 1442.31,0 	"/>
</g>
<text transform="matrix(1 0 0 1 526.2965 52.744)" class="st1 st2 st3">SHOP BY COLLECTION</text>
</svg>
