<?xml version="1.0" encoding="utf-8"?>
<!-- Generator: Adobe Illustrator 26.2.1, SVG Export Plug-In . SVG Version: 6.00 Build 0)  -->
<svg version="1.1" id="Layer_1" xmlns="http://www.w3.org/2000/svg" xmlns:xlink="http://www.w3.org/1999/xlink" x="0px" y="0px"
	 viewBox="0 0 1442.3 80.6" style="enable-background:new 0 0 1442.3 80.6;" xml:space="preserve">
<style type="text/css">
	.st0{fill:#2D2D2D;}
	.st1{enable-background:new    ;}
	.st2{fill:#FFFFFF;}
</style>
<rect width="1442.3" height="80.6"/>
<g>
	<polygon class="st0" points="12.6,80.6 3.9,80.6 26.8,0 35.5,0 	"/>
	<polygon class="st0" points="153.3,80.6 144.6,80.6 167.5,0 176.2,0 	"/>
	<polygon class="st0" points="294,80.6 285.3,80.6 308.2,0 316.9,0 	"/>
	<polygon class="st0" points="434.6,80.6 426,80.6 448.9,0 457.6,0 	"/>
	<polygon class="st0" points="575.3,80.6 566.6,80.6 589.6,0 598.2,0 	"/>
	<polygon class="st0" points="716,80.6 707.3,80.6 730.2,0 738.9,0 	"/>
	<polygon class="st0" points="856.7,80.6 848,80.6 870.9,0 879.6,0 	"/>
	<polygon class="st0" points="997.3,80.6 988.7,80.6 1011.6,0 1020.3,0 	"/>
	<polygon class="st0" points="1138,80.6 1129.3,80.6 1152.3,0 1161,0 	"/>
	<polygon class="st0" points="1278.7,80.6 1270,80.6 1292.9,0 1301.6,0 	"/>
	<polygon class="st0" points="1419.4,80.6 1410.7,80.6 1433.6,0 1442.3,0 	"/>
</g>
<g class="st1">
	<path class="st2" d="M542.6,38.4c0.6,0.7,1,1.4,1.3,2.1c0.3,0.8,0.4,1.7,0.4,2.7c0,2.5-0.9,4.5-2.7,6.1c-1.8,1.6-4.1,2.4-6.8,2.4
		c-1.2,0-2.5-0.2-3.7-0.6s-2.3-0.9-3.2-1.4l-0.8,1.4h-1.6l-0.3-9.5h1.6c0.3,1.2,0.7,2.2,1.1,3.2c0.4,0.9,1,1.8,1.7,2.7
		c0.7,0.8,1.5,1.4,2.4,1.8c0.9,0.5,2,0.7,3.2,0.7c0.9,0,1.7-0.1,2.4-0.4c0.7-0.2,1.2-0.6,1.6-1c0.4-0.4,0.7-0.9,0.9-1.5
		c0.2-0.6,0.3-1.3,0.3-2c0-1.1-0.3-2.1-0.9-3.1s-1.6-1.7-2.8-2.2c-0.8-0.3-1.8-0.7-2.9-1.1s-2-0.8-2.8-1.2c-1.6-0.7-2.8-1.6-3.7-2.8
		c-0.9-1.1-1.3-2.6-1.3-4.5c0-1.1,0.2-2,0.6-3c0.4-0.9,1-1.7,1.8-2.4c0.8-0.7,1.7-1.2,2.7-1.6s2.1-0.6,3.2-0.6
		c1.3,0,2.4,0.2,3.4,0.6c1,0.4,1.9,0.8,2.8,1.4l0.8-1.3h1.6l0.2,9.2h-1.6c-0.3-1.1-0.6-2.1-1-3c-0.4-1-0.8-1.8-1.4-2.6
		c-0.6-0.8-1.2-1.4-2.1-1.8c-0.8-0.5-1.8-0.7-3-0.7c-1.2,0-2.3,0.4-3.2,1.2c-0.9,0.8-1.3,1.8-1.3,2.9c0,1.2,0.3,2.2,0.8,3
		s1.4,1.4,2.4,1.9c1,0.5,1.9,0.9,2.8,1.2c0.9,0.3,1.8,0.7,2.7,1.1c0.8,0.3,1.5,0.7,2.3,1.2S542.1,37.9,542.6,38.4z"/>
	<path class="st2" d="M576.6,51.2h-11.5v-1.4c0.3,0,0.8-0.1,1.4-0.1c0.6-0.1,1-0.1,1.2-0.2c0.4-0.2,0.7-0.4,0.9-0.7
		c0.2-0.3,0.3-0.7,0.3-1.2v-9.9h-13.1v9.7c0,0.5,0.1,0.8,0.2,1.2s0.4,0.6,0.9,0.8c0.2,0.1,0.6,0.2,1.2,0.4c0.6,0.1,1,0.2,1.3,0.2
		v1.4h-11.5v-1.4c0.3,0,0.8-0.1,1.4-0.1c0.6-0.1,1-0.1,1.2-0.2c0.4-0.2,0.7-0.4,0.9-0.7c0.2-0.3,0.3-0.7,0.3-1.2v-20
		c0-0.4-0.1-0.8-0.3-1.1c-0.2-0.3-0.5-0.6-0.9-0.8c-0.4-0.2-0.8-0.3-1.3-0.5c-0.5-0.1-0.9-0.2-1.3-0.2v-1.4h11.5v1.4
		c-0.4,0-0.8,0.1-1.3,0.2c-0.5,0.1-0.9,0.2-1.2,0.3c-0.4,0.2-0.7,0.4-0.9,0.8s-0.2,0.8-0.2,1.2v8.6h13.1v-8.4c0-0.4-0.1-0.8-0.3-1.1
		c-0.2-0.3-0.5-0.6-0.9-0.8c-0.4-0.2-0.8-0.3-1.3-0.5c-0.5-0.1-0.9-0.2-1.3-0.2v-1.4h11.5v1.4c-0.4,0-0.8,0.1-1.3,0.2
		c-0.5,0.1-0.9,0.2-1.2,0.3c-0.4,0.2-0.7,0.4-0.9,0.8c-0.2,0.4-0.2,0.8-0.2,1.2v20c0,0.5,0.1,0.8,0.2,1.2c0.1,0.3,0.4,0.6,0.9,0.8
		c0.2,0.1,0.6,0.2,1.2,0.4c0.6,0.1,1,0.2,1.3,0.2V51.2z"/>
	<path class="st2" d="M603,26.7c1.2,1.3,2.2,2.8,2.9,4.6c0.7,1.8,1,3.8,1,6c0,2.2-0.4,4.2-1.1,6s-1.7,3.3-2.9,4.6
		c-1.2,1.3-2.6,2.2-4.2,2.9c-1.6,0.7-3.3,1-5.1,1c-1.9,0-3.7-0.4-5.4-1.1s-3-1.7-4.2-3c-1.2-1.3-2.1-2.8-2.8-4.6
		c-0.7-1.8-1-3.7-1-5.8c0-2.3,0.4-4.3,1.1-6c0.7-1.8,1.7-3.3,2.9-4.6c1.2-1.3,2.7-2.3,4.3-2.9s3.3-1,5.1-1c1.8,0,3.6,0.3,5.2,1
		C600.4,24.5,601.8,25.4,603,26.7z M600,46.4c0.7-1.2,1.3-2.5,1.6-4c0.3-1.5,0.5-3.2,0.5-5c0-1.9-0.2-3.7-0.6-5.2
		c-0.4-1.6-0.9-2.9-1.6-4.1c-0.7-1.1-1.6-2-2.7-2.6c-1.1-0.6-2.3-0.9-3.7-0.9c-1.6,0-2.9,0.4-4,1.1s-2,1.7-2.7,2.9
		c-0.7,1.1-1.1,2.5-1.5,4c-0.3,1.5-0.5,3.2-0.5,4.9c0,1.9,0.2,3.6,0.5,5.1c0.3,1.5,0.9,2.9,1.6,4c0.7,1.1,1.6,2,2.7,2.7
		c1.1,0.6,2.3,1,3.8,1c1.4,0,2.7-0.3,3.8-1C598.4,48.5,599.3,47.6,600,46.4z"/>
	<path class="st2" d="M631.6,30.2c0,1.4-0.3,2.7-0.9,3.8c-0.6,1.1-1.4,2-2.4,2.8c-1,0.7-2.1,1.3-3.3,1.6c-1.2,0.3-2.4,0.5-3.8,0.5
		h-3.1v8.4c0,0.5,0.1,0.9,0.2,1.2c0.1,0.3,0.5,0.6,0.9,0.8c0.2,0.1,0.6,0.2,1.2,0.3c0.6,0.1,1.1,0.1,1.6,0.1v1.4h-11.9v-1.4
		c0.3,0,0.8-0.1,1.4-0.1s1-0.2,1.2-0.3c0.4-0.2,0.7-0.4,0.9-0.7c0.2-0.3,0.3-0.7,0.3-1.3v-20c0-0.5-0.1-0.9-0.2-1.2
		s-0.4-0.6-0.9-0.8c-0.5-0.2-1-0.3-1.5-0.4c-0.5-0.1-0.9-0.1-1.3-0.1v-1.4h12.7c2.6,0,4.7,0.6,6.3,1.9
		C630.8,26.5,631.6,28.2,631.6,30.2z M625.7,35c0.4-0.6,0.7-1.3,0.9-1.9s0.2-1.3,0.2-1.8c0-0.7-0.1-1.5-0.3-2.3
		c-0.2-0.8-0.5-1.4-0.9-2c-0.5-0.6-1.1-1.1-1.8-1.4c-0.7-0.3-1.7-0.5-2.8-0.5h-2.8v12.3h2c1.4,0,2.6-0.2,3.4-0.7
		C624.5,36.2,625.2,35.6,625.7,35z"/>
	<path class="st2" d="M664.2,38.2c0.8,0.5,1.5,1.3,2,2.2c0.5,0.9,0.8,2,0.8,3.2c0,1.3-0.3,2.4-0.8,3.4c-0.6,1-1.3,1.7-2.2,2.3
		c-0.9,0.6-1.9,1.1-3,1.4c-1.1,0.3-2.2,0.5-3.4,0.5h-13.2v-1.4c0.3,0,0.8-0.1,1.4-0.2s1-0.2,1.3-0.3c0.4-0.2,0.7-0.4,0.9-0.7
		c0.2-0.3,0.3-0.7,0.3-1.2v-20c0-0.4-0.1-0.8-0.2-1.2c-0.2-0.3-0.4-0.6-0.9-0.8c-0.4-0.2-0.8-0.3-1.3-0.5c-0.5-0.1-0.9-0.2-1.2-0.2
		v-1.4h12.8c1,0,1.9,0.1,2.8,0.3c0.9,0.2,1.8,0.5,2.6,1c0.8,0.5,1.4,1.1,1.9,1.9c0.5,0.8,0.7,1.7,0.7,2.9c0,1-0.2,1.8-0.5,2.6
		s-0.8,1.4-1.5,2c-0.6,0.5-1.3,1-2.1,1.3c-0.8,0.4-1.6,0.6-2.5,0.8v0.2c0.8,0.1,1.7,0.3,2.7,0.6S663.4,37.7,664.2,38.2z M659.4,34
		c0.5-0.6,0.8-1.2,1-1.8c0.2-0.7,0.3-1.5,0.3-2.4c0-1.5-0.4-2.7-1.2-3.6s-2.1-1.3-3.9-1.3c-0.4,0-0.9,0-1.6,0c-0.6,0-1.2,0-1.6,0
		v10.7h2.5c1.1,0,2-0.1,2.7-0.4C658.3,35,659,34.6,659.4,34z M662.1,42.9c0-1.6-0.6-3-1.7-4.1c-1.1-1.1-2.7-1.6-4.7-1.6
		c-0.8,0-1.5,0-2.1,0c-0.6,0-1,0-1.3,0v9.8c0,0.8,0.3,1.4,1,1.9c0.7,0.4,1.6,0.6,2.8,0.6c1.9,0,3.4-0.6,4.5-1.7
		C661.6,46.8,662.1,45.1,662.1,42.9z"/>
	<path class="st2" d="M694.5,24.8c-0.2,0-0.6,0.1-1.1,0.3c-0.5,0.2-0.8,0.3-1,0.5c-0.5,0.3-0.9,0.6-1,0.7c-0.2,0.2-0.5,0.6-1.1,1.3
		c-1,1.4-2,2.9-2.8,4.4s-1.9,3.3-3.2,5.6c-0.5,0.8-0.8,1.5-1,2c-0.2,0.5-0.2,1.2-0.2,2.2v5.3c0,0.5,0.1,0.9,0.3,1.2s0.5,0.6,1,0.8
		c0.3,0.1,0.8,0.2,1.5,0.4c0.7,0.2,1.3,0.2,1.7,0.2v1.4h-13v-1.4c0.4,0,0.9-0.1,1.6-0.1c0.7-0.1,1.2-0.2,1.5-0.3
		c0.5-0.2,0.8-0.5,1-0.8c0.2-0.3,0.3-0.8,0.3-1.3v-6.8c0-0.2-0.1-0.6-0.4-1.1c-0.3-0.6-0.6-1.2-0.9-1.8c-0.8-1.5-1.7-3.2-2.6-4.9
		c-1-1.8-1.8-3.3-2.5-4.5c-0.4-0.7-0.8-1.3-1.1-1.7c-0.3-0.4-0.7-0.7-1.1-1c-0.3-0.2-0.7-0.3-1.1-0.5c-0.4-0.1-0.8-0.2-1.2-0.2v-1.4
		h11.9v1.4c-1.3,0-2.3,0.1-2.8,0.3c-0.5,0.2-0.8,0.4-0.8,0.7c0,0.1,0,0.2,0.1,0.4c0.1,0.2,0.2,0.4,0.3,0.7c0.2,0.3,0.4,0.7,0.6,1.2
		c0.2,0.4,0.5,0.9,0.7,1.3c0.6,1.2,1.2,2.3,1.9,3.5c0.6,1.2,1.5,2.7,2.5,4.5c2-3.3,3.6-5.9,4.7-7.7s1.6-3,1.6-3.3
		c0-0.3-0.1-0.5-0.3-0.7s-0.5-0.3-0.9-0.4c-0.4-0.1-0.8-0.2-1.2-0.2s-0.9-0.1-1.2-0.1v-1.4h9.7V24.8z"/>
	<path class="st2" d="M726.3,30.2c0,1.4-0.3,2.7-0.9,3.8c-0.6,1.1-1.4,2-2.4,2.8c-1,0.7-2.1,1.3-3.3,1.6c-1.2,0.3-2.4,0.5-3.8,0.5
		h-3.1v8.4c0,0.5,0.1,0.9,0.2,1.2c0.2,0.3,0.5,0.6,0.9,0.8c0.2,0.1,0.6,0.2,1.2,0.3c0.6,0.1,1.1,0.1,1.6,0.1v1.4H705v-1.4
		c0.3,0,0.8-0.1,1.4-0.1s1-0.2,1.2-0.3c0.4-0.2,0.7-0.4,0.9-0.7c0.2-0.3,0.3-0.7,0.3-1.3v-20c0-0.5-0.1-0.9-0.2-1.2
		c-0.1-0.4-0.4-0.6-0.9-0.8c-0.5-0.2-1-0.3-1.5-0.4c-0.5-0.1-0.9-0.1-1.3-0.1v-1.4h12.7c2.6,0,4.7,0.6,6.3,1.9
		C725.5,26.5,726.3,28.2,726.3,30.2z M720.3,35c0.4-0.6,0.7-1.3,0.9-1.9s0.2-1.3,0.2-1.8c0-0.7-0.1-1.5-0.3-2.3
		c-0.2-0.8-0.5-1.4-0.9-2c-0.5-0.6-1.1-1.1-1.8-1.4c-0.7-0.3-1.7-0.5-2.8-0.5h-2.8v12.3h2c1.4,0,2.6-0.2,3.4-0.7
		C719.2,36.2,719.9,35.6,720.3,35z"/>
	<path class="st2" d="M756.5,51.2H749c-1.7-2.6-3.2-4.8-4.5-6.7c-1.3-1.9-2.8-3.8-4.4-5.9h-2.8v8.8c0,0.5,0.1,0.9,0.2,1.2
		c0.1,0.3,0.5,0.6,0.9,0.8c0.2,0.1,0.6,0.2,1.2,0.3c0.6,0.1,1.1,0.1,1.5,0.1v1.4h-11.7v-1.4c0.3,0,0.8-0.1,1.4-0.1s1-0.2,1.2-0.3
		c0.4-0.2,0.7-0.4,0.9-0.7c0.2-0.3,0.3-0.7,0.3-1.3V27.3c0-0.5-0.1-0.9-0.2-1.2c-0.1-0.4-0.4-0.6-0.9-0.8c-0.3-0.1-0.8-0.2-1.3-0.3
		c-0.5-0.1-1-0.2-1.3-0.2v-1.4h12.8c1.2,0,2.3,0.1,3.3,0.4c1,0.2,2,0.6,2.8,1.2c0.8,0.5,1.5,1.2,1.9,2s0.7,1.9,0.7,3
		c0,1.1-0.2,2-0.5,2.8c-0.3,0.8-0.8,1.5-1.4,2.1c-0.6,0.6-1.3,1-2.1,1.5c-0.8,0.4-1.7,0.8-2.7,1c1.4,1.8,2.5,3.3,3.4,4.6
		c0.9,1.2,2,2.7,3.3,4.5c0.6,0.8,1.1,1.4,1.6,1.7s0.9,0.7,1.4,0.9c0.3,0.2,0.8,0.3,1.3,0.4c0.5,0.1,0.9,0.1,1.3,0.2V51.2z
		 M746.2,30.5c0-1.7-0.5-3-1.4-4s-2.3-1.5-4.1-1.5h-3.3v11.9h2.6c1.8,0,3.3-0.6,4.5-1.7S746.2,32.5,746.2,30.5z"/>
	<path class="st2" d="M780,26.7c1.2,1.3,2.2,2.8,2.9,4.6c0.7,1.8,1,3.8,1,6c0,2.2-0.4,4.2-1.1,6c-0.7,1.8-1.7,3.3-2.9,4.6
		c-1.2,1.3-2.6,2.2-4.2,2.9c-1.6,0.7-3.3,1-5.1,1c-1.9,0-3.7-0.4-5.4-1.1s-3-1.7-4.2-3c-1.2-1.3-2.1-2.8-2.8-4.6
		c-0.7-1.8-1-3.7-1-5.8c0-2.3,0.4-4.3,1.1-6c0.7-1.8,1.7-3.3,2.9-4.6c1.2-1.3,2.7-2.3,4.3-2.9c1.6-0.7,3.3-1,5.1-1
		c1.8,0,3.6,0.3,5.2,1S778.8,25.4,780,26.7z M777.1,46.4c0.7-1.2,1.3-2.5,1.6-4c0.3-1.5,0.5-3.2,0.5-5c0-1.9-0.2-3.7-0.6-5.2
		c-0.4-1.6-0.9-2.9-1.6-4.1c-0.7-1.1-1.6-2-2.7-2.6c-1.1-0.6-2.3-0.9-3.7-0.9c-1.6,0-2.9,0.4-4,1.1s-2,1.7-2.7,2.9
		c-0.7,1.1-1.1,2.5-1.5,4c-0.3,1.5-0.5,3.2-0.5,4.9c0,1.9,0.2,3.6,0.5,5.1c0.3,1.5,0.9,2.9,1.6,4c0.7,1.1,1.6,2,2.7,2.7
		c1.1,0.6,2.3,1,3.8,1c1.4,0,2.7-0.3,3.8-1C775.5,48.5,776.4,47.6,777.1,46.4z"/>
	<path class="st2" d="M814,37.5c0,2.4-0.4,4.4-1.3,6.1c-0.9,1.7-2,3.2-3.5,4.3c-1.4,1.1-3,1.9-4.8,2.5c-1.8,0.5-3.6,0.8-5.5,0.8
		h-11.5v-1.4c0.4,0,0.9,0,1.5-0.1c0.6-0.1,1-0.2,1.2-0.2c0.4-0.2,0.7-0.4,0.9-0.8c0.2-0.3,0.3-0.7,0.3-1.2v-20
		c0-0.4-0.1-0.8-0.2-1.2c-0.2-0.4-0.4-0.6-0.9-0.8c-0.4-0.2-0.8-0.3-1.3-0.4c-0.5-0.1-0.9-0.1-1.2-0.2v-1.4h12.1
		c1.7,0,3.3,0.3,4.9,0.8s3,1.2,4.2,2.1c1.6,1.2,2.9,2.7,3.8,4.6C813.5,32.7,814,34.9,814,37.5z M809.2,37.4c0-1.9-0.2-3.5-0.7-5.1
		c-0.5-1.5-1.2-2.8-2.2-3.9c-0.9-1.1-2-1.9-3.3-2.5c-1.3-0.6-2.8-0.9-4.4-0.9c-0.5,0-1.1,0-1.8,0s-1.2,0-1.5,0v21.3
		c0,1.2,0.3,2,1,2.5c0.7,0.5,1.8,0.7,3.2,0.7c1.7,0,3.1-0.3,4.3-0.9c1.2-0.6,2.2-1.4,3-2.4c0.8-1.1,1.4-2.4,1.8-3.8
		C809,41,809.2,39.3,809.2,37.4z"/>
	<path class="st2" d="M845.5,24.8c-0.4,0-0.9,0.1-1.6,0.2c-0.7,0.1-1.3,0.4-1.7,0.6c-0.4,0.3-0.8,0.9-0.9,1.9
		c-0.2,0.9-0.3,2.1-0.3,3.4V43c0,1.5-0.3,2.9-1,4c-0.6,1.1-1.5,2.1-2.5,2.8c-1,0.7-2.1,1.2-3.3,1.5c-1.1,0.3-2.2,0.5-3.3,0.5
		c-1.7,0-3.2-0.2-4.5-0.7s-2.4-1-3.3-1.8c-0.9-0.7-1.5-1.6-2-2.6c-0.4-1-0.7-2-0.7-3V27.4c0-0.5-0.1-0.8-0.2-1.1
		c-0.2-0.3-0.5-0.6-0.9-0.9c-0.3-0.2-0.7-0.3-1.3-0.4c-0.5-0.1-0.9-0.2-1.3-0.2v-1.4h11.6v1.4c-0.4,0-0.8,0.1-1.4,0.2
		c-0.6,0.1-1,0.2-1.2,0.3c-0.4,0.2-0.7,0.4-0.9,0.8c-0.2,0.4-0.2,0.8-0.2,1.2v15.3c0,0.7,0.1,1.5,0.2,2.3c0.2,0.8,0.5,1.6,1,2.3
		c0.5,0.7,1.2,1.3,2.1,1.8c0.9,0.5,2.1,0.7,3.6,0.7c1.4,0,2.6-0.2,3.6-0.7c1-0.5,1.7-1.1,2.3-1.8c0.5-0.7,0.9-1.4,1.1-2.2
		s0.3-1.5,0.3-2.3V31.2c0-1.4-0.1-2.6-0.3-3.5s-0.5-1.5-0.9-1.8c-0.5-0.3-1.1-0.6-1.9-0.8c-0.8-0.2-1.4-0.3-1.8-0.3v-1.4h11.4V24.8z
		"/>
	<path class="st2" d="M860,51.8c-1.7,0-3.2-0.3-4.8-1c-1.5-0.7-2.9-1.6-4-2.8c-1.2-1.2-2.1-2.7-2.8-4.5c-0.7-1.8-1-3.8-1-6
		s0.3-4.2,1-6c0.7-1.8,1.6-3.4,2.8-4.7c1.2-1.3,2.6-2.3,4.2-3c1.6-0.7,3.3-1.1,5.2-1.1c1.4,0,2.6,0.2,3.7,0.5
		c1.1,0.3,2.2,0.8,3.2,1.4l0.8-1.3h1.6l0.2,9.9h-1.6c-0.2-1-0.5-2-0.9-3.1c-0.4-1.1-0.9-2.1-1.5-2.9c-0.6-0.9-1.4-1.6-2.2-2.1
		s-1.8-0.8-3-0.8c-1.3,0-2.4,0.3-3.5,0.8c-1.1,0.6-2,1.4-2.8,2.5c-0.8,1.1-1.3,2.4-1.8,4c-0.4,1.6-0.6,3.5-0.6,5.5
		c0,1.8,0.2,3.4,0.7,4.9c0.5,1.5,1.1,2.8,1.9,3.9c0.8,1.1,1.8,2,3,2.6c1.1,0.6,2.4,0.9,3.8,0.9c1.1,0,2-0.2,2.9-0.5
		c0.9-0.3,1.7-0.8,2.3-1.3c0.7-0.6,1.2-1.2,1.7-2c0.5-0.7,0.9-1.5,1.2-2.4l1.5,0.7c-1.1,2.8-2.6,4.7-4.5,5.9
		C864.7,51.2,862.5,51.8,860,51.8z"/>
	<path class="st2" d="M896.1,30.9h-1.4c-0.1-0.5-0.3-1-0.6-1.7c-0.3-0.6-0.7-1.3-1-1.8c-0.4-0.6-0.8-1.1-1.3-1.6
		c-0.5-0.5-0.9-0.7-1.3-0.8c-0.4-0.1-0.9-0.1-1.5-0.1c-0.6,0-1.2,0-1.7,0h-1.1v22.2c0,0.4,0.1,0.8,0.3,1.2c0.2,0.4,0.5,0.6,1,0.8
		c0.2,0.1,0.7,0.2,1.5,0.4c0.8,0.2,1.3,0.2,1.8,0.3v1.4h-13.1v-1.4c0.4,0,0.9-0.1,1.7-0.2c0.8-0.1,1.3-0.2,1.6-0.3
		c0.4-0.2,0.7-0.4,0.9-0.7c0.2-0.3,0.3-0.7,0.3-1.3V24.9h-1.1c-0.4,0-0.9,0-1.5,0c-0.6,0-1.2,0.1-1.7,0.1c-0.4,0.1-0.9,0.3-1.3,0.8
		c-0.5,0.5-0.9,1-1.3,1.6c-0.4,0.6-0.7,1.2-1,1.9s-0.5,1.2-0.6,1.6h-1.4v-7.5h24.2V30.9z"/>
	<path class="st2" d="M915.6,38.4c0.6,0.7,1,1.4,1.3,2.1c0.3,0.8,0.4,1.7,0.4,2.7c0,2.5-0.9,4.5-2.7,6.1s-4.1,2.4-6.8,2.4
		c-1.2,0-2.5-0.2-3.7-0.6c-1.2-0.4-2.3-0.9-3.2-1.4l-0.8,1.4h-1.6l-0.3-9.5h1.6c0.3,1.2,0.7,2.2,1.1,3.2s1,1.8,1.7,2.7
		c0.7,0.8,1.5,1.4,2.4,1.8s2,0.7,3.2,0.7c0.9,0,1.7-0.1,2.4-0.4c0.7-0.2,1.2-0.6,1.6-1c0.4-0.4,0.7-0.9,0.9-1.5
		c0.2-0.6,0.3-1.3,0.3-2c0-1.1-0.3-2.1-0.9-3.1c-0.6-1-1.6-1.7-2.8-2.2c-0.8-0.3-1.8-0.7-2.9-1.1s-2-0.8-2.8-1.2
		c-1.6-0.7-2.8-1.6-3.7-2.8c-0.9-1.1-1.3-2.6-1.3-4.5c0-1.1,0.2-2,0.6-3c0.4-0.9,1-1.7,1.8-2.4c0.8-0.7,1.7-1.2,2.7-1.6
		s2.1-0.6,3.2-0.6c1.3,0,2.4,0.2,3.4,0.6c1,0.4,1.9,0.8,2.8,1.4l0.8-1.3h1.6l0.2,9.2h-1.6c-0.3-1.1-0.6-2.1-1-3
		c-0.4-1-0.8-1.8-1.4-2.6c-0.6-0.8-1.2-1.4-2.1-1.8c-0.8-0.5-1.8-0.7-3-0.7c-1.2,0-2.3,0.4-3.2,1.2c-0.9,0.8-1.3,1.8-1.3,2.9
		c0,1.2,0.3,2.2,0.8,3c0.6,0.8,1.4,1.4,2.4,1.9c1,0.5,1.9,0.9,2.8,1.2c0.9,0.3,1.8,0.7,2.7,1.1c0.8,0.3,1.5,0.7,2.3,1.2
		C914.4,37.4,915,37.9,915.6,38.4z"/>
</g>
</svg>
