<svg id="Layer_1" data-name="Layer 1" xmlns="http://www.w3.org/2000/svg" viewBox="0 0 850.39 850.39"><defs><style>.cls-1{fill:#e81d25;}.cls-2{fill:#0d0a0a;}.cls-3{fill:#fff;}</style></defs><title>WHITELIST</title><path class="cls-1" d="M424.9,85.68c186.49.33,338.73,150,338.9,338.55a338.6,338.6,0,0,1-677.2.62C86.24,238.49,236.28,86.55,424.9,85.68Z"/><path class="cls-2" d="M432.8,506.5c-40.39.37-71.58,7.43-100.7,22.86-32.95,17.45-58.5,42.54-77.11,74.8-3.7,6.41-4.24,13-.62,19.49,7.3,13.15,25.15,12.82,33-.64,13.82-23.81,32-43.31,55.89-57.25,31.3-18.29,65.18-24.28,101-20.49,36.4,3.86,67.77,18.48,93.7,44.46a165.11,165.11,0,0,1,25.46,33.83c6.2,10.62,19,13,28.3,5.52,7.68-6.15,9-16.22,3-26.11C556.14,539.34,498.68,508.89,432.8,506.5Z"/><path class="cls-2" d="M304.28,430.45a43.87,43.87,0,0,0,.2-87.73,43.87,43.87,0,1,0-.2,87.73Z"/><path class="cls-2" d="M507,386.61a43.72,43.72,0,1,0,43.27-43.88A43.55,43.55,0,0,0,507,386.61Z"/><path class="cls-2" d="M248.07,430.51c-10.52,11.69-25.63,36.35-32.23,51.46-6.24,14.28-5.44,28.17,1.36,41.88,10.18,20.52,34.19,27,50.54,13.15,14.11-12,19.73-28,15-45.83C276.72,468.07,262.11,449.44,248.07,430.51Z"/><path class="cls-2" d="M233.93,275.58C262.4,294.83,291.2,293,320.31,282c27.24-10.34,48.44-27.18,57.25-57.72Z"/><path class="cls-2" d="M616.52,275.58l-143.7-51.37c9.92,32.93,33.33,49.79,62.87,59.71C563.2,293.17,590.14,293.54,616.52,275.58Z"/><path class="cls-2" d="M432.8,506.5c65.88,2.39,123.33,32.84,161.87,96.46,6,9.9,4.66,20-3,26.11-9.32,7.46-22.1,5.09-28.3-5.52a165.11,165.11,0,0,0-25.46-33.83c-25.93-26-57.3-40.6-93.7-44.46-35.79-3.8-69.67,2.2-101,20.49-23.85,13.94-42.07,33.44-55.89,57.25-7.82,13.47-25.67,13.79-33,.64-3.62-6.52-3.08-13.08.62-19.49,18.61-32.25,44.16-57.35,77.11-74.8C361.22,513.93,392.42,506.87,432.8,506.5Z"/><path class="cls-2" d="M304.28,430.45a43.87,43.87,0,1,1,43.92-43.69A44,44,0,0,1,304.28,430.45Z"/><path class="cls-2" d="M507,386.61a43.72,43.72,0,1,1,43.67,43.84A43.83,43.83,0,0,1,507,386.61Z"/><path class="cls-3" d="M248.07,430.51c14,18.92,28.65,37.55,34.72,60.66,4.69,17.87-.94,33.85-15,45.83-16.34,13.88-40.36,7.37-50.54-13.15-6.8-13.71-7.6-27.59-1.36-41.88C222.44,466.86,237.54,442.2,248.07,430.51Z"/><path class="cls-2" d="M233.93,275.58l143.63-51.35c-8.81,30.54-30,47.39-57.25,57.72C291.2,293,262.4,294.83,233.93,275.58Z"/><path class="cls-2" d="M616.52,275.58c-26.38,18-53.32,17.59-80.83,8.35-29.54-9.93-53-26.79-62.87-59.71Z"/></svg>