<svg xmlns="http://www.w3.org/2000/svg" viewBox="0 0 588 588"><defs><style>.cls-1{fill:#545454;}.cls-2{fill:#f6d7c2;}.cls-3{fill:#ef0000;}.cls-4{fill:#f0f0f0;}</style></defs><title>500 om</title><g id="Layer_2" data-name="Layer 2"><g id="Layer_1-2" data-name="Layer 1"><g id="Icons"><path d="M21,525H567a21,21,0,0,0,21-21V126a21,21,0,0,0-21-21H21A21,21,0,0,0,0,126V504A21,21,0,0,0,21,525Z"/><path class="cls-1" d="M52.5,483h483A10.5,10.5,0,0,0,546,472.5v-315A10.5,10.5,0,0,0,535.5,147H52.5A10.5,10.5,0,0,0,42,157.5v315A10.5,10.5,0,0,0,52.5,483Z"/><path d="M336,567H252V525h84Z"/><path d="M168,588H420a21,21,0,0,0-21-21H189A21,21,0,0,0,168,588Z"/><path class="cls-1" d="M336,535.5H252V525h84Z"/><circle class="cls-2" cx="294" cy="315" r="147"/><path d="M241.5,298.35l13.58,13.58a10.5,10.5,0,0,0,14.85-14.85L256.35,283.5l13.58-13.58a10.5,10.5,0,1,0-14.85-14.85L241.5,268.65l-13.58-13.58a10.5,10.5,0,1,0-14.85,14.85l13.58,13.58-13.58,13.58a10.5,10.5,0,1,0,14.85,14.85Z"/><path d="M361.35,283.5l13.58-13.58a10.5,10.5,0,0,0-14.85-14.85L346.5,268.65l-13.58-13.58a10.5,10.5,0,1,0-14.85,14.85l13.58,13.58-13.58,13.58a10.5,10.5,0,1,0,14.85,14.85l13.58-13.58,13.58,13.58a10.5,10.5,0,0,0,14.85-14.85Z"/><path d="M294,346.5c-47.93,0-71.42,45.85-72.4,47.81a10.5,10.5,0,0,0,18.76,9.43c.19-.38,18.82-36.24,53.63-36.24s53.45,35.86,53.6,36.19a10.5,10.5,0,1,0,18.78-9.39c-1-2-24.46-47.81-72.39-47.81Z"/><circle class="cls-3" cx="462" cy="126" r="126"/><path class="cls-4" d="M476.85,126l45.08-45.08a10.5,10.5,0,1,0-14.85-14.85L462,111.15,416.92,66.08a10.5,10.5,0,0,0-14.85,14.85L447.15,126l-45.08,45.08a10.5,10.5,0,1,0,14.85,14.85L462,140.85l45.08,45.08a10.5,10.5,0,1,0,14.85-14.85Z"/></g></g></g></svg>