<svg id="Layer_1" data-name="Layer 1" xmlns="http://www.w3.org/2000/svg" viewBox="0 0 15.39 20.21"><defs><style>.cls-1{fill:none;stroke:#231f20;stroke-miterlimit:10;}</style></defs><title>map-white</title><path class="cls-1" d="M8.92,2H8C3.82,2.21.25,6.59,1.51,10.67A22.36,22.36,0,0,0,4.38,16c.41.59.84,1.16,1.28,1.73s.78,1,1.17,1.5c.51.65,1,1.29,1.52,1.94h.21c.49-.66,1-1.31,1.51-2s.79-1,1.17-1.5.86-1.14,1.27-1.72a20.84,20.84,0,0,0,3-5.6C16.48,6.38,13,2.21,8.92,2ZM8.26,12a3,3,0,1,1,3-3A3,3,0,0,1,8.26,12Z" transform="translate(-0.75 -1.5)"/></svg>