<?xml version="1.0" encoding="utf-8"?>
<!-- Generator: Adobe Illustrator 21.0.0, SVG Export Plug-In . SVG Version: 6.00 Build 0)  -->
<svg version="1.1" id="Layer_1" xmlns="http://www.w3.org/2000/svg" xmlns:xlink="http://www.w3.org/1999/xlink" x="0px" y="0px"
	 viewBox="0 0 236.6 269.8" style="enable-background:new 0 0 236.6 269.8;" xml:space="preserve">
<style type="text/css">
	.st0{fill:#FF0202;}
</style>
<title>PRE ORDER</title>
<g id="Layer_2">
	<g id="Layer_1-2">
		<path class="st0" d="M31.4,70.8L17.5,58.1L34.6,41c3.7,3.7,7.7,7.5,11.4,11.5c2.2,2.4,3.8,2.6,6.6,0.7
			c15.3-10.6,36.9-18.3,53.1-19.3v-8.3c-0.1-0.1-0.3-0.4-0.6-0.5c-8-0.7-8-0.7-8-9.1c0-5.1,0-10.3,0-16h41.8v24.6l-8.6,0.4
			c0,2-0.4,4,0.1,5.8c0.3,1.2,1.7,2.8,2.8,3c19.6,2.6,38.2,10,54.2,21.5l13.4-15.2l18,18.5c-3.4,3.1-7.1,6.6-11,10
			c-2.1,1.8-2.1,3.2-0.2,5.4c14.9,16.7,24.5,37.5,27.6,59.6c5.1,34.6-3.4,65.7-25.2,92.6c-18.5,22.8-42.7,36.9-72,41.7
			c-33.4,5.5-63.6-2-90.5-22.1c-24.7-18.3-39.8-42.8-45.3-73.1c-6.2-34,1.5-64.8,21.7-92.6C26,77.3,28.4,74.5,31.4,70.8z
			 M13.6,151.6c0.1,57.5,46.4,105.3,105.5,104.7c58.4-0.6,104.2-46.2,104-105.1S176,45.4,115.3,46.7C59.6,47.9,13.3,94.3,13.6,151.6
			z"/>
		<path class="st0" d="M194.3,153.9c-1-3.8-0.1-5.6,4-5.4c5.4,0.2,10.7,0.2,16.1,0c3.9-0.1,5.1,1.5,4.2,5.4H194.3z"/>
		<path class="st0" d="M78.8,86.6L67.2,66c3.1-3.5,5.2-2.8,7.2,1.1c2.8,5.6,6,11.1,9.2,17L78.8,86.6z"/>
		<path class="st0" d="M152.9,219.5l4.8-3l11.7,20.9l-4.4,3.4L152.9,219.5z"/>
		<path class="st0" d="M157.9,86.7L153,84l11.6-20.6c4.2,0.9,5.4,2.3,3.2,5.8C164.3,74.8,161.3,80.5,157.9,86.7z"/>
		<path class="st0" d="M67,237.9l11.8-21c4.2,1.1,5.2,3,2.7,6.8c-3.5,5.3-6.3,10.9-9.5,16.7L67,237.9z"/>
		<path class="st0" d="M42,148.6v5.3H19c-0.6-4.6-0.3-5.2,4.1-5.3C29.2,148.5,35.3,148.6,42,148.6z"/>
	</g>
</g>
</svg>
