<?xml version="1.0" encoding="utf-8"?>
<!-- Generator: Adobe Illustrator 21.0.0, SVG Export Plug-In . SVG Version: 6.00 Build 0)  -->
<svg version="1.1" id="Layer_1" xmlns="http://www.w3.org/2000/svg" xmlns:xlink="http://www.w3.org/1999/xlink" x="0px" y="0px"
	 viewBox="0 0 612 792" style="enable-background:new 0 0 612 792;" xml:space="preserve">
<g>
	<path d="M157.7,197.2c-4.4-54.1,9.2-100.7,49.7-136.8c29.3-26.2,64.3-38.7,103.6-37.8c85.9,2.1,157,77.8,145.8,174.5
		c5.4,0,10.8,0,16,0c50.1,0,84.2,32.9,86.5,82.8c5.8,124.8,11.9,249.8,17.5,374.5c0.8,16.8,2.5,34.1-0.4,50.3
		c-6.7,39.1-39.7,65.7-79.2,66.1c-47.2,0.4-94.6,0-141.8,0c-79,0-158,0-237.1,0c-41.6,0-74.2-27.2-81.9-68c-1.2-6.9-1.2-13.9-1-21
		c3.3-72.8,6.9-145.4,10.4-217.9c2.9-60.3,5.8-120.4,8.3-180.7c1-23.1,6.9-44.1,23.3-60.9c15.6-16,34.7-24.3,57-25.2
		C141.7,197,149,197.2,157.7,197.2z M519.2,485.9C519.2,485.9,519,485.9,519.2,485.9c-3.3-68.6-6.4-137-9.8-205.7
		c-1-21.4-13.9-33.1-35.1-33.1c-59.3,0-118.5,0-177.8,0c-52.8,0-105.4,0-158.3,0c-18.5,0-31,11.2-33.1,29.5
		c-0.4,4.4-0.4,8.7-0.6,13.3c-2.7,58.9-5.6,117.9-8.3,176.8c-3.5,72.4-7.1,144.9-10.4,217.3c-1,24.5,11.4,37.2,36,37.2
		c123.5,0,246.8,0,370.4,0c25.2,0,37.6-12.5,36.6-37.6C525.6,617.7,522.3,551.8,519.2,485.9z M406.2,196.8
		c4.4-48.5-8.1-88.6-52.4-112.5c-37-19.8-74-16.4-107.5,8.9c-34.3,26-42.6,62.6-38.3,103.4C274.2,196.8,340.1,196.8,406.2,196.8z"/>
</g>
</svg>
